<?xml version="1.0" encoding="UTF-8" standalone="no"?>
<svg
   viewBox="0 0 448 512"
   version="1.1"
   id="svg4"
   sodipodi:docname="database-solid.svg"
   inkscape:version="1.1.2 (0a00cf5339, 2022-02-04)"
   xmlns:inkscape="http://www.inkscape.org/namespaces/inkscape"
   xmlns:sodipodi="http://sodipodi.sourceforge.net/DTD/sodipodi-0.dtd"
   xmlns="http://www.w3.org/2000/svg"
   xmlns:svg="http://www.w3.org/2000/svg">
  <defs
     id="defs8" />
  <sodipodi:namedview
     id="namedview6"
     pagecolor="#ffffff"
     bordercolor="#666666"
     borderopacity="1.0"
     inkscape:pageshadow="2"
     inkscape:pageopacity="0.0"
     inkscape:pagecheckerboard="0"
     showgrid="false"
     inkscape:zoom="1.2304688"
     inkscape:cx="223.89841"
     inkscape:cy="255.1873"
     inkscape:window-width="2048"
     inkscape:window-height="1080"
     inkscape:window-x="0"
     inkscape:window-y="0"
     inkscape:window-maximized="1"
     inkscape:current-layer="svg4" />
  <!--!Font Awesome Free 6.5.2 by @fontawesome - https://fontawesome.com License - https://fontawesome.com/license/free Copyright 2024 Fonticons, Inc.-->
  <path
     d="M448 80v48c0 44.2-100.3 80-224 80S0 172.2 0 128V80C0 35.8 100.3 0 224 0S448 35.8 448 80zM393.2 214.7c20.8-7.4 39.9-16.9 54.8-28.6V288c0 44.2-100.3 80-224 80S0 332.2 0 288V186.1c14.9 11.8 34 21.2 54.8 28.6C99.7 230.7 159.5 240 224 240s124.3-9.3 169.2-25.3zM0 346.1c14.9 11.8 34 21.2 54.8 28.6C99.7 390.7 159.5 400 224 400s124.3-9.3 169.2-25.3c20.8-7.4 39.9-16.9 54.8-28.6V432c0 44.2-100.3 80-224 80S0 476.2 0 432V346.1z"
     id="path2" />
  <path
     style="fill:#ffffff;stroke-width:0.812698"
     d="M 197.89206,207.09475 C 135.32806,204.29363 78.065028,192.09571 41.634916,173.80953 23.069377,164.49052 9.6385373,152.94766 3.9874363,141.45418 L 0.81269841,134.99724 0.57202192,105.57796 C 0.34213855,77.477986 0.40802377,75.931057 2.0411923,71.083071 16.194727,29.068944 118.54495,-1.7734939 235.68254,0.67708383 267.03983,1.3330943 289.04912,3.1915208 314.89888,7.365975 383.75005,18.484688 431.24765,40.369976 444.38876,67.03053 l 2.59537,5.265451 v 31.729419 31.72941 l -2.75538,5.59697 c -13.37574,27.16996 -66.64276,50.57734 -137.84145,60.57228 -33.29124,4.67346 -75.0987,6.66593 -108.49524,5.17069 z"
     id="path121" />
  <path
     style="fill:#ffffff;stroke-width:0.812698"
     d="M 193.82857,366.93621 C 132.33874,363.56785 79.552476,352.25541 43.885714,334.80246 23.139056,324.65042 10.011924,313.7063 4.0048172,301.55365 L 0.81269841,295.09585 0.58714787,241.15851 C 0.40168383,196.8073 0.5511298,187.33891 1.4280212,187.8836 c 0.586533,0.36434 3.8429447,2.56315 7.2364703,4.88626 34.0423125,23.30432 93.7081985,39.73025 166.8783685,45.94137 18.91424,1.60555 83.00987,1.32753 101.99365,-0.44242 38.36522,-3.57696 68.38009,-8.91382 97.45517,-17.32823 24.48688,-7.08658 49.00933,-17.8119 64.4971,-28.20896 l 7.94592,-5.33415 -0.22528,54.21238 -0.22529,54.21237 -2.76119,5.64999 c -3.53929,7.24217 -14.06413,18.02289 -23.65151,24.22653 -31.75941,20.55035 -84.79144,34.81401 -148.72381,40.00123 -18.96184,1.5385 -60.48918,2.19651 -78.01905,1.23624 z"
     id="path160" />
  <path
     style="fill:#ffffff;stroke-width:0.812698"
     d="M 197.07937,511.05925 C 185.06624,510.43109 166.33782,508.94191 156.85079,507.8605 72.853839,498.28584 12.600179,472.2608 2.0717522,441.00765 0.44485648,436.17828 0.39902045,434.64142 0.60258182,391.74731 l 0.21011659,-44.27545 5.28253969,3.6913 c 35.4722629,24.78708 92.6220269,40.73433 170.6666619,47.62338 18.56581,1.63881 79.2986,1.37468 99.55556,-0.43298 71.12876,-6.34728 127.26498,-21.95522 162.36216,-45.14265 l 8.76216,-5.78884 -0.22883,46.14228 -0.22882,46.14229 -2.59537,5.26414 c -19.27115,39.08739 -114.09895,67.31138 -223.33479,66.47207 -10.72762,-0.0824 -21.51619,-0.25504 -23.9746,-0.3836 z"
     id="path199" />
</svg>
