<svg xmlns="http://www.w3.org/2000/svg" version="1.1" viewBox="-5.0 -10.0 110.0 135.0">
 <path d="m76.66 9.0781c-14.648-5.4375-38.672-5.4375-53.316 0-13.531 5.0234-13.531 11.988 0 17.012 14.648 5.4375 38.672 5.4375 53.316 0 13.527-5.0234 13.531-11.988 0-17.012zm-63.48 58.426v14.914c0 3.1562 3.8828 6.1758 10.164 8.5039 14.648 5.4375 38.672 5.4375 53.316 0 6.2773-2.332 10.164-5.3516 10.164-8.5039l-0.003907-14.914c-13.746 12.43-59.895 12.43-73.641 0zm0-21.609c13.742 12.43 59.902 12.43 73.645 0v14.914c0 3.1562-3.8828 6.1758-10.164 8.5039-14.648 5.4375-38.672 5.4375-53.316 0-6.2773-2.332-10.164-5.3516-10.164-8.5039zm73.641-21.613v14.914c0 3.1562-3.8828 6.1758-10.164 8.5039-14.648 5.4375-38.672 5.4375-53.316 0-6.2773-2.332-10.164-5.3516-10.164-8.5039l0.003907-14.914c13.742 12.43 59.898 12.43 73.641 0z" fill-rule="evenodd"/>
<text x="0.0" y="117.5" font-size="5.0" font-weight="bold" font-family="Arbeit Regular, Helvetica, Arial-Unicode, Arial, Sans-serif" fill="#000000">Created by Dwi Budiyanto</text><text x="0.0" y="122.5" font-size="5.0" font-weight="bold" font-family="Arbeit Regular, Helvetica, Arial-Unicode, Arial, Sans-serif" fill="#000000">from Noun Project</text></svg>